# Blender v2.77 (sub 0) OBJ File: 'Camaro.blend'
# www.blender.org
mtllib CamaroDoorLeft.mtl
v -2.302957 0.122282 0.605509
v -2.375207 0.122272 0.569679
v -2.304017 0.122412 0.514889
v -2.232837 0.122412 0.569679
v -2.375207 0.065012 0.569679
v -2.302957 0.065012 0.605509
v -2.232837 0.065112 0.569679
v -2.304017 0.065112 0.514889
v -2.304187 -0.160828 0.483679
v -2.304177 0.072162 0.483679
v -2.402287 0.072052 0.522369
v -2.402287 -0.162628 0.522369
v -1.678747 0.049042 0.664229
v -1.602557 0.101132 0.634479
v -1.540867 0.022342 0.634479
v -1.651957 -0.005828 0.664229
v -2.443637 -0.162628 0.609709
v -2.443637 0.071982 0.609709
v -2.363607 0.072062 0.657819
v -2.363617 -0.162628 0.657819
v -2.206087 0.072162 0.522369
v -2.206087 -0.160828 0.522369
v -2.132887 -0.162628 0.664229
v -2.161787 0.072162 0.607409
v -2.132887 0.072092 0.664229
v -2.380587 0.126512 0.634479
v -2.136857 0.146322 0.634479
v -1.677117 0.049162 0.603039
v -1.650147 -0.005828 0.603039
v -1.707837 0.146322 0.634479
v -1.743587 0.082492 0.664229
v -1.741767 0.082492 0.603499
v -1.519937 -0.077248 0.634479
v -1.631037 -0.077248 0.664229
v -1.629217 -0.077248 0.603039
v -2.269237 0.050552 0.385069
v -2.250087 0.056362 0.339009
v -2.240657 0.000392 0.332199
v -2.262377 -0.006198 0.384439
v -2.315607 0.047712 0.404149
v -2.314967 -0.009418 0.406069
v -2.362027 0.049512 0.385069
v -2.367617 -0.007378 0.384439
v -2.381307 0.054892 0.339009
v -2.389477 -0.001278 0.332199
v -2.362147 0.060702 0.292959
v -2.367757 0.005312 0.279959
v -2.315787 0.063542 0.273879
v -2.315167 0.008532 0.258329
v -2.269367 0.061742 0.292959
v -2.262517 0.006492 0.279959
v -2.605107 0.056212 -0.238961
v -2.601167 0.024592 -0.592301
v 1.016663 0.100762 0.043069
v 1.016593 0.055082 0.372679
v 2.226083 0.071972 0.398359
v 2.226233 0.128392 0.056469
v -2.598467 -0.022118 -0.968351
v -2.598177 -0.087088 -1.239821
v -2.601007 0.041862 0.002389
v -2.605037 0.056452 -0.218531
v 1.016783 0.127022 -0.239031
v 1.016573 0.085362 -0.612981
v -1.211047 0.043392 -0.600311
v -1.211047 0.074732 -0.239001
v -2.593037 0.022992 0.295709
v -1.211047 0.031752 0.325249
v -1.211047 0.058502 0.018139
v 1.016373 0.014932 -1.000851
v 1.016223 -0.080298 -1.269361
v -1.211047 -0.083968 -1.250551
v -1.211047 -0.005338 -0.980921
v 1.016783 0.127132 -0.218661
v -1.211047 0.074912 -0.218571
v 2.699803 0.119852 -0.620701
v 2.713533 0.169582 -0.238981
v 2.705433 0.137552 0.063869
v 2.694343 0.078762 0.410829
v 2.677473 0.024282 -1.018081
v 2.664243 -0.081938 -1.287171
v 2.225343 -0.078918 -1.280281
v 2.225643 0.022872 -1.011571
v 2.713603 0.169742 -0.218651
v 2.226063 0.113552 -0.619801
v 2.226453 0.160542 -0.239051
v 2.226463 0.160602 -0.218711
v 1.016483 -0.005078 0.631129
v 1.016333 -0.088208 0.897269
v 2.225583 -0.072358 0.956829
v 2.225873 0.011272 0.657399
v 1.013953 -0.122308 0.985199
v 2.220813 -0.099868 1.040579
v 0.975373 -0.332518 1.212548
v 0.998133 -0.261948 1.118689
v -1.211787 -0.274048 1.074349
v -1.212477 -0.341368 1.154119
v -2.581027 -0.032588 0.554889
v -2.564427 -0.132538 0.797239
v -1.211057 -0.116288 0.820329
v -1.211047 -0.026188 0.583549
v -2.511387 -0.283928 1.046209
v -2.357287 -0.345348 1.126639
v -2.559697 -0.173628 0.880859
v -2.552457 -0.218798 0.963519
v -1.211067 -0.206598 0.991149
v -1.211057 -0.157178 0.908749
v 1.009573 -0.186688 1.042529
v 2.212073 -0.176038 1.072939
v 2.189913 -0.257598 1.140989
v 2.145073 -0.327198 1.246549
v 2.516133 -0.171548 1.074559
v 2.657113 0.016762 0.668669
v 2.542823 -0.069218 0.969879
v 2.508583 -0.096898 1.050899
v 2.368473 -0.135708 1.057569
v 2.364698 -0.098383 1.045739
v 2.442303 -0.153628 1.066064
v 2.436640 -0.097641 1.048319
v 2.294643 -0.117788 1.049074
v 2.292755 -0.099125 1.043159
v 2.366585 -0.117045 1.051654
v 2.440415 -0.134965 1.060149
v 2.438528 -0.116303 1.054234
v 2.216443 -0.137953 1.056759
v 2.479218 -0.162588 1.070311
v 2.364103 -0.173793 1.073749
v 2.331558 -0.126748 1.053321
v 2.405388 -0.144668 1.061816
v 2.257728 -0.108828 1.044826
v 2.355848 -0.213288 1.093019
v 2.440118 -0.172670 1.074154
v 2.288088 -0.174915 1.073344
v 2.397983 -0.192979 1.083586
v 2.200993 -0.216818 1.106964
v 2.344768 -0.254068 1.127043
v 2.283960 -0.194663 1.082979
v 2.314364 -0.224365 1.105011
v 2.167493 -0.292398 1.193769
v 2.267340 -0.255833 1.134016
v 2.214258 -0.156995 1.064849
v 2.497675 -0.167068 1.072435
v 2.478125 -0.172109 1.074356
v 2.350015 -0.131228 1.055445
v 2.423845 -0.149148 1.063940
v 2.276186 -0.113308 1.046950
v 2.218628 -0.118910 1.048669
v 2.460760 -0.158108 1.068187
v 2.326095 -0.174354 1.073546
v 2.313100 -0.122268 1.051197
v 2.386930 -0.140188 1.059692
v 2.239270 -0.104348 1.042702
v 2.402110 -0.173232 1.073951
v 2.250080 -0.175477 1.073141
vt 0.5000 -0.5000
vt 0.5000 -0.5000
vt 0.5000 -0.5000
vt 0.5000 -0.5000
vt 0.5000 -0.5000
vt 0.5000 -0.5000
vt 0.5000 -0.5000
vt 0.5000 -0.5000
vt 0.5000 -0.5000
vt 0.5000 -0.5000
vt 0.5000 -0.5000
vt 0.5000 -0.5000
vt 0.5000 -0.5000
vt 0.5000 -0.5000
vt 0.5000 -0.5000
vt 0.5000 -0.5000
vt 0.5000 -0.5000
vt 0.5000 -0.5000
vt 0.5000 -0.5000
vt 0.5000 -0.5000
vt 0.5000 -0.5000
vt 0.5000 -0.5000
vt 0.5000 -0.5000
vt 0.5000 -0.5000
vt 0.5000 -0.5000
vt 0.5000 -0.5000
vt 0.5000 -0.5000
vt 0.5000 -0.5000
vt 0.5000 -0.5000
vt 0.5000 -0.5000
vt 0.5000 -0.5000
vt 0.5000 -0.5000
vt 0.5000 -0.5000
vt 0.5000 -0.5000
vt 0.5000 -0.5000
vt 0.5000 -0.5000
vt 0.5000 -0.5000
vt 0.5000 -0.5000
vt 0.5000 -0.5000
vt 0.5000 -0.5000
vt 0.5000 -0.5000
vt 0.5000 -0.5000
vt 0.5000 -0.5000
vt 0.5000 -0.5000
vt 0.5000 -0.5000
vt 0.5000 -0.5000
vt 0.5000 -0.5000
vt 0.5000 -0.5000
vt 0.5000 -0.5000
vt 0.5000 -0.5000
vt 0.5000 -0.5000
vt 0.5000 -0.5000
vt 0.5000 -0.5000
vt 0.5000 -0.5000
vt 0.5000 -0.5000
vt 0.5000 -0.5000
vt 0.5000 -0.5000
vt 0.5000 -0.5000
vt 0.5000 -0.5000
vt 0.5000 -0.5000
vt 0.5000 -0.5000
vt 0.5000 -0.5000
vt 0.5000 -0.5000
vt 0.5000 -0.5000
vt 0.5000 -0.5000
vt 0.5000 -0.5000
vt 0.5000 -0.5000
vt 0.5000 -0.5000
vt 0.5000 -0.5000
vt 0.5000 -0.5000
vt 0.5000 -0.5000
vt 0.5000 -0.5000
vt 0.5000 -0.5000
vt 0.5000 -0.5000
vt 0.5000 -0.5000
vt 0.5000 -0.5000
vt 0.5000 -0.5000
vt 0.5000 -0.5000
vt 0.5000 -0.5000
vt 0.5000 -0.5000
vt 0.5000 -0.5000
vt 0.5000 -0.5000
vt 0.5000 -0.5000
vt 0.5000 -0.5000
vt 0.5000 -0.5000
vt 0.5000 -0.5000
vt 0.5000 -0.5000
vt 0.5000 -0.5000
vt 0.5000 -0.5000
vt 0.5000 -0.5000
vt 0.5000 -0.5000
vt 0.5000 -0.5000
vt 0.5000 -0.5000
vt 0.5000 -0.5000
vt 0.5000 -0.5000
vt 0.5000 -0.5000
vt 0.5000 -0.5000
vt 0.5000 -0.5000
vt 0.5000 -0.5000
vt 0.5000 -0.5000
vt 0.5000 -0.5000
vt 0.5000 -0.5000
vt 0.5000 -0.5000
vt 0.5000 -0.5000
vt 0.5000 -0.5000
vt 0.5000 -0.5000
vt 0.5000 -0.5000
vt 0.5000 -0.5000
vt 0.5000 -0.5000
vt 0.5000 -0.5000
vt 0.5000 -0.5000
vt 0.5000 -0.5000
vt 0.5000 -0.5000
vt 0.5000 -0.5000
vt 0.5000 -0.5000
vt 0.5000 -0.5000
vt 0.5000 -0.5000
vt 0.5000 -0.5000
vt 0.5000 -0.5000
vt 0.5000 -0.5000
vt 0.5000 -0.5000
vt 0.5000 -0.5000
vt 0.5000 -0.5000
vt 0.5000 -0.5000
vt 0.5000 -0.5000
vt 0.5000 -0.5000
vt 0.5000 -0.5000
vt 0.5000 -0.5000
vt 0.5000 -0.5000
vt 0.5000 -0.5000
vt 0.5000 -0.5000
vt 0.5000 -0.5000
vt 0.5000 -0.5000
vt 0.5000 -0.5000
vt 0.5000 -0.5000
vt 0.5000 -0.5000
vt 0.5000 -0.5000
vt 0.5000 -0.5000
vt 0.5000 -0.5000
vt 0.5000 -0.5000
vt 0.5000 -0.5000
vt 0.5000 -0.5000
vt 0.5000 -0.5000
vt 0.5000 -0.5000
vt 0.5000 -0.5000
vt 0.5000 -0.5000
vt 0.5000 -0.5000
vt 0.5000 -0.5000
vt 0.5000 -0.5000
vt 0.5000 -0.5000
vt 0.5000 -0.5000
vt 0.5000 -0.5000
vt 0.5000 -0.5000
vn -0.0213 0.9926 0.1194
vn -0.0174 0.9833 0.1811
vn -0.0198 0.9807 0.1946
vn -0.0229 0.9900 0.1393
vn -0.0246 0.9980 -0.0575
vn -0.0204 0.9894 -0.1439
vn -0.0174 0.9941 -0.1072
vn -0.0185 0.9987 -0.0477
vn -0.0106 0.9977 0.0668
vn -0.0084 0.9907 0.1355
vn -0.0123 0.9882 0.1526
vn -0.0147 0.9967 0.0791
vn -0.0114 0.9659 -0.2585
vn -0.0064 0.9419 -0.3357
vn -0.0075 0.9593 -0.2821
vn -0.0121 0.9789 -0.2040
vn -0.0247 0.9985 0.0480
vn -0.0175 0.9994 0.0308
vn -0.0045 0.9548 -0.2971
vn 0.0006 0.9301 -0.3672
vn -0.0046 0.9342 -0.3566
vn -0.0079 0.9568 -0.2905
vn -0.0163 0.9849 -0.1725
vn -0.0224 0.9978 -0.0626
vn -0.0156 0.9919 -0.1260
vn -0.0116 0.9839 -0.1780
vn -0.0203 0.9802 0.1967
vn -0.0204 0.9900 0.1398
vn -0.0235 0.9981 0.0564
vn -0.0186 0.9938 0.1096
vn -0.0137 0.9943 -0.1059
vn -0.0132 0.9986 -0.0504
vn -0.0126 0.9710 -0.2387
vn -0.0139 0.9839 -0.1782
vn -0.0130 0.9995 0.0271
vn -0.0186 0.9651 0.2612
vn -0.0253 0.9437 0.3299
vn -0.0224 0.9564 0.2911
vn -0.0189 0.9685 0.2483
vn -0.0309 0.8199 0.5716
vn -0.0305 0.7341 0.6783
vn -0.0185 0.8007 0.5987
vn -0.0190 0.7599 0.6497
vn -0.0192 0.7708 0.6367
vn -0.0200 0.7645 0.6443
vn -0.0128 0.9564 0.2917
vn -0.0187 0.9116 0.4105
vn -0.0208 0.9214 0.3881
vn -0.0149 0.9579 0.2866
vn -0.0191 0.7796 0.6259
vn -0.0178 0.7779 0.6281
vn -0.0191 0.8871 0.4612
vn -0.0186 0.8396 0.5428
vn -0.0194 0.8189 0.5735
vn -0.0220 0.8827 0.4693
vn -0.0248 0.6901 0.7233
vn -0.0083 0.5156 0.8568
vn -0.0301 0.3937 0.9187
vn -0.0113 0.4404 0.8977
vn -0.0107 0.3984 0.9171
vn -0.0110 0.4163 0.9091
vn -0.0107 0.3920 0.9199
vn -0.0181 0.3663 0.9303
vn -0.0240 0.3457 0.9380
vn -0.0221 0.9491 0.3141
vn -0.0208 0.9578 0.2866
vn -0.0327 0.7022 0.7112
vn -0.0296 0.8046 0.5931
vn -0.0195 0.9691 0.2460
vn -0.0137 0.8355 0.5493
vn -0.0133 0.8374 0.5465
vn 0.0027 0.7044 0.7098
vn 0.0151 0.6381 0.7698
vn -0.0373 0.2985 0.9537
vn 0.0186 0.5292 0.8483
vn 0.0553 0.6308 0.7740
vn -0.8267 0.5567 0.0812
vn 0.0043 0.6179 0.7862
vn -0.0002 0.5928 -0.8054
vn 0.8263 0.5580 0.0762
vn -0.9951 0.0000 0.0982
vn 0.0058 0.0000 1.0000
vn 0.9957 0.0000 0.0923
vn -0.0002 0.0000 -1.0000
vn -0.0002 0.6334 -0.7738
vn -0.0021 0.0000 -1.0000
vn -0.5293 0.6328 -0.5651
vn -0.6848 0.0000 -0.7287
vn 0.6430 0.7658 0.0105
vn 0.1922 0.2483 0.9494
vn 0.9255 0.3786 0.0081
vn 0.2406 0.0901 0.9664
vn -0.8386 0.5128 0.1834
vn -0.9572 0.0000 0.2894
vn -0.2513 0.1622 0.9542
vn -0.2807 0.0000 0.9598
vn 0.6716 0.0000 -0.7409
vn 0.5169 0.6359 -0.5731
vn 0.8433 -0.0005 0.5373
vn 0.4870 0.3945 -0.7792
vn 0.3176 0.2825 0.9051
vn -0.3746 0.9246 0.0681
vn -0.0493 0.9987 -0.0087
vn 0.2569 0.0963 -0.9616
vn 0.2044 0.2515 -0.9460
vn 0.0676 0.3901 0.9183
vn 0.2337 0.9722 0.0128
vn 0.0683 0.3954 -0.9160
vn 0.9722 0.2339 0.0078
vn 0.2579 0.0755 0.9632
vn 0.2756 0.0808 -0.9579
vn 0.7186 0.6904 0.0829
vn 0.5066 0.6261 0.5927
vn 0.9863 0.1639 0.0186
vn 0.6978 0.0764 0.7121
vn -0.0067 0.5946 0.8039
vn -0.0004 0.0336 0.9994
vn -0.5205 0.6146 0.5927
vn -0.6994 0.0608 0.7121
vn -0.7339 0.6741 0.0828
vn -0.9897 0.1418 0.0185
vn -0.5219 0.7385 -0.4269
vn -0.7013 0.2294 -0.6749
vn -0.0086 0.7699 -0.6381
vn -0.0030 0.2720 -0.9623
vn 0.5051 0.7500 -0.4269
vn 0.6959 0.2450 -0.6750
usemtl Body
s 1
f 54/1/1 55/2/2 56/3/3
f 56/3/3 57/4/4 54/1/1
f 62/5/5 63/6/6 64/7/7
f 64/7/7 65/8/8 62/5/5
f 60/9/9 66/10/10 67/11/11
f 67/11/11 68/12/12 60/9/9
f 69/13/13 70/14/14 71/15/15
f 71/15/15 72/16/16 69/13/13
f 63/6/6 69/13/13 72/16/16
f 72/16/16 64/7/7 63/6/6
f 54/1/1 73/17/17 74/18/18
f 74/18/18 68/12/12 54/1/1
f 79/19/19 80/20/20 81/21/21
f 81/21/21 82/22/22 79/19/19
f 84/23/23 85/24/24 76/25/25
f 76/25/25 75/26/26 84/23/23
f 57/4/4 56/3/3 78/27/27
f 78/27/27 77/28/28 57/4/4
f 82/22/22 84/23/23 75/26/26
f 75/26/26 79/19/19 82/22/22
f 86/29/29 57/4/4 77/28/28
f 77/28/28 83/30/30 86/29/29
f 65/8/8 64/7/7 53/31/31
f 53/31/31 52/32/32 65/8/8
f 68/12/12 67/11/11 55/2/2
f 55/2/2 54/1/1 68/12/12
f 72/16/16 71/15/15 59/33/33
f 59/33/33 58/34/34 72/16/16
f 64/7/7 72/16/16 58/34/34
f 58/34/34 53/31/31 64/7/7
f 68/12/12 74/18/18 61/35/35
f 61/35/35 60/9/9 68/12/12
f 85/24/24 84/23/23 63/6/6
f 63/6/6 62/5/5 85/24/24
f 82/22/22 81/21/21 70/14/14
f 70/14/14 69/13/13 82/22/22
f 84/23/23 82/22/22 69/13/13
f 69/13/13 63/6/6 84/23/23
f 57/4/4 86/29/29 73/17/17
f 73/17/17 54/1/1 57/4/4
f 65/8/8 74/18/18 73/17/17
f 73/17/17 62/5/5 65/8/8
f 85/24/24 86/29/29 83/30/30
f 52/32/32 61/35/35 74/18/18
f 74/18/18 65/8/8 52/32/32
f 62/5/5 73/17/17 86/29/29
f 86/29/29 85/24/24 62/5/5
f 87/36/36 88/37/37 89/38/38
f 89/38/38 90/39/39 87/36/36
f 88/37/37 91/40/40 92/41/41
f 92/41/41 89/38/38 88/37/37
f 93/42/42 94/43/43 95/44/44
f 95/44/44 96/45/45 93/42/42
f 97/46/46 98/47/47 99/48/48
f 99/48/48 100/49/49 97/46/46
f 101/50/50 102/51/51 96/45/45
f 96/45/45 95/44/44 101/50/50
f 103/52/52 104/53/53 105/54/54
f 105/54/54 106/55/55 103/52/52
f 91/40/40 107/56/56 108/57/57
f 108/57/57 140/58/58 124/59/58 146/60/58 92/41/41 91/40/40
f 55/2/2 87/36/36 90/39/39
f 90/39/39 56/3/3 55/2/2
f 66/10/10 97/46/46 100/49/49
f 100/49/49 67/11/11 66/10/10
f 94/43/43 107/56/56 105/54/54
f 105/54/54 95/44/44 94/43/43
f 133/61/59 131/62/60 152/63/61 126/64/61 148/65/61 132/66/61
f 92/41/41 146/60/58 124/59/58 140/58/58 108/57/57 153/67/61 132/66/61 148/65/61 126/64/61 152/63/61 131/62/60 142/68/62 111/69/62 141/70/62 125/71/62 147/72/62 117/73/63 144/74/64 128/75/64 150/76/64 115/77/64 143/78/64 127/79/64 149/80/64 119/81/64 145/82/64 129/83/64 151/84/64
f 114/85/65 113/86/66 89/38/38
f 89/38/38 92/41/41 120/87/67 116/88/67 118/89/68 114/85/65
f 112/90/69 78/27/27 56/3/3
f 56/3/3 90/39/39 112/90/69
f 90/39/39 89/38/38 113/86/66
f 113/86/66 112/90/69 90/39/39
f 100/49/49 99/48/48 88/37/37
f 88/37/37 87/36/36 100/49/49
f 99/48/48 106/55/55 91/40/40
f 91/40/40 88/37/37 99/48/48
f 110/91/70 138/92/71 109/93/72 94/43/43
f 94/43/43 93/42/42 110/91/70
f 106/55/55 99/48/48 98/47/47
f 98/47/47 103/52/52 106/55/55
f 106/55/55 105/54/54 107/56/56
f 107/56/56 91/40/40 106/55/55
f 67/11/11 100/49/49 87/36/36
f 87/36/36 55/2/2 67/11/11
f 95/44/44 105/54/54 104/53/53
f 104/53/53 101/50/50 95/44/44
f 109/93/72 134/94/73 108/57/57 107/56/56
f 107/56/56 94/43/43 109/93/72
f 115/77/64 121/95/74 119/81/64 149/80/64 127/79/64 143/78/64
f 115/77/64 122/96/74 121/95/74
f 123/97/74 118/89/68 116/88/67
f 121/95/74 123/97/74 116/88/67
f 121/95/74 122/96/74 123/97/74
f 119/81/64 120/87/67 92/41/41 151/84/64 129/83/64 145/82/64
f 119/81/64 121/95/74 120/87/67
f 121/95/74 116/88/67 120/87/67
f 117/73/63 122/96/74 115/77/64 150/76/64 128/75/64 144/74/64
f 130/98/59 133/61/59 132/66/61 153/67/61 108/57/57 136/99/75
f 108/57/57 134/94/73 137/100/76 136/99/75
f 134/94/73 109/93/72 139/101/76 135/102/76 137/100/76
usemtl mirror
f 2/103/77 1/104/78 3/105/79
f 4/106/80 3/105/79 1/104/78
f 2/103/77 5/107/81 1/104/78
f 6/108/82 1/104/78 5/107/81
f 1/104/78 6/108/82 4/106/80
f 7/109/83 4/106/80 6/108/82
f 4/106/80 7/109/83 3/105/79
f 8/110/84 3/105/79 7/109/83
f 3/105/79 8/110/84 2/103/77
f 5/107/81 2/103/77 8/110/84
f 10/111/85 9/112/86 11/113/87
f 12/114/88 11/113/87 9/112/86
f 14/115/89 13/116/90 15/117/91
f 16/118/92 15/117/91 13/116/90
f 18/119/93 17/120/94 19/121/95
f 20/122/96 19/121/95 17/120/94
f 22/123/97 21/124/98 23/125/99
f 21/124/98 24/126/100 23/125/99
f 24/126/100 25/127/101 23/125/99
f 17/120/94 18/119/93 12/114/88
f 11/113/87 12/114/88 18/119/93
f 21/124/98 22/123/97 10/111/85
f 9/112/86 10/111/85 22/123/97
f 18/119/93 26/128/102 24/126/100
f 27/129/103 24/126/100 26/128/102
f 26/128/102 18/119/93 19/121/95
f 29/130/104 28/131/105 15/117/91
f 14/115/89 15/117/91 28/131/105
f 31/132/106 30/133/107 25/127/101
f 30/133/107 27/129/103 25/127/101
f 27/129/103 26/128/102 25/127/101
f 26/128/102 19/121/95 25/127/101
f 19/121/95 20/122/96 25/127/101
f 23/125/99 25/127/101 20/122/96
f 11/113/87 18/119/93 10/111/85
f 18/119/93 24/126/100 10/111/85
f 24/126/100 21/124/98 10/111/85
f 31/132/106 13/116/90 30/133/107
f 14/115/89 30/133/107 13/116/90
f 28/131/105 32/134/108 14/115/89
f 30/133/107 14/115/89 32/134/108
f 24/126/100 27/129/103 32/134/108
f 30/133/107 32/134/108 27/129/103
f 15/117/91 16/118/92 33/135/109
f 34/136/110 33/135/109 16/118/92
f 15/117/91 33/135/109 29/130/104
f 35/137/111 29/130/104 33/135/109
f 37/138/112 36/139/113 38/140/114
f 39/141/115 38/140/114 36/139/113
f 36/139/113 40/142/116 39/141/115
f 41/143/117 39/141/115 40/142/116
f 40/142/116 42/144/118 41/143/117
f 43/145/119 41/143/117 42/144/118
f 42/144/118 44/146/120 43/145/119
f 45/147/121 43/145/119 44/146/120
f 44/146/120 46/148/122 45/147/121
f 47/149/123 45/147/121 46/148/122
f 46/148/122 48/150/124 47/149/123
f 49/151/125 47/149/123 48/150/124
f 48/150/124 50/152/126 49/151/125
f 51/153/127 49/151/125 50/152/126
f 50/152/126 37/138/112 51/153/127
f 38/140/114 51/153/127 37/138/112
f 37/138/112 50/152/126 36/139/113
f 48/150/124 46/148/122 50/152/126
f 44/146/120 42/144/118 46/148/122
f 46/148/122 42/144/118 50/152/126
f 50/152/126 42/144/118 36/139/113
f 42/144/118 40/142/116 36/139/113
