# Blender v2.77 (sub 0) OBJ File: 'Camaro.blend'
# www.blender.org
mtllib CamaroGlass.mtl
v -5.183136 -0.579584 -0.135147
v -5.192496 0.048296 -0.127867
v -4.736816 0.048296 0.130663
v -4.727646 -0.579104 0.120193
v -5.099976 -1.847114 -0.192397
v -5.153516 -1.235504 -0.157007
v -4.705416 -1.234484 0.099093
v -4.661286 -1.855754 0.056673
v -4.311406 -0.579244 0.352162
v -4.317806 0.048296 0.361203
v -3.895446 0.048296 0.585743
v -3.888616 -0.578984 0.572213
v -5.553456 -0.578394 -0.355547
v -5.566356 0.048296 -0.345637
v -4.259346 -1.867134 0.277923
v -4.291606 -1.234214 0.322883
v -3.875326 -1.233584 0.542193
v -3.856146 -1.878304 0.496953
v -5.458956 -1.831304 -0.396907
v -5.520647 -1.233084 -0.370797
v -3.851656 -2.115624 0.474313
v -3.989936 -2.294094 0.360653
v -4.210376 -2.324354 0.229393
v -3.897316 -2.226034 0.426602
v -4.613106 -2.379644 -0.010437
v -5.017506 -2.435164 -0.251257
v -5.343596 -2.479934 -0.445437
v -5.183136 0.676176 -0.135147
v -4.727646 0.675696 0.120203
v -5.099976 1.943706 -0.192397
v -4.661286 1.952346 0.056673
v -4.705416 1.331076 0.099093
v -5.153516 1.332096 -0.157007
v -4.311406 0.675836 0.352162
v -3.888616 0.675576 0.572213
v -5.553456 0.674986 -0.355547
v -4.259336 1.963726 0.277933
v -3.856146 1.974896 0.496953
v -3.875326 1.330176 0.542193
v -4.291606 1.330806 0.322883
v -5.520647 1.329676 -0.370797
v -5.458956 1.927896 -0.396907
v -3.851656 2.212216 0.474313
v -3.897316 2.322626 0.426602
v -3.989936 2.390686 0.360653
v -4.210366 2.420946 0.229393
v -4.613106 2.476236 -0.010437
v -5.343596 2.576526 -0.445437
v -5.017506 2.531756 -0.251257
v 1.799224 2.813166 0.691043
v -0.026286 3.381626 -0.815947
v 1.037104 3.386796 -0.787897
v 3.136944 3.370256 -0.656037
v 2.654814 3.394886 -0.744007
v 2.468084 3.091706 0.017503
v 2.100494 3.391966 -0.759837
v -1.079666 2.872086 0.597572
v -1.440546 2.909696 0.506943
v -1.171096 3.376556 -0.843427
v -0.694866 3.378666 -0.831997
v -1.769686 2.974016 0.340373
v -2.009506 3.343206 -0.770317
v -1.839726 3.357636 -0.808947
v -1.647096 3.374446 -0.854857
v -1.743416 3.366046 -0.831897
v -2.909766 3.273396 -0.597327
v -2.763196 3.284026 -0.621977
v -2.690016 3.215246 -0.401697
v -2.496126 3.303376 -0.666877
v -2.380406 3.134066 -0.130507
v -2.311856 3.317986 -0.703807
v -2.132216 3.071786 0.070273
v -2.189536 3.328106 -0.730327
v -0.026286 -3.285034 -0.815947
v 1.799224 -2.716574 0.691043
v 1.037104 -3.290204 -0.787897
v 3.136944 -3.273664 -0.656037
v 2.654814 -3.298294 -0.744007
v 2.468084 -2.995124 0.017503
v 2.100494 -3.295374 -0.759847
v -1.079666 -2.775504 0.597572
v -0.694866 -3.282074 -0.831997
v -1.171096 -3.279964 -0.843427
v -1.440546 -2.813104 0.506943
v -1.839726 -3.261044 -0.808947
v -2.009506 -3.246614 -0.770317
v -1.769686 -2.877424 0.340373
v -1.647096 -3.277854 -0.854857
v -1.743416 -3.269454 -0.831897
v -2.763196 -3.187434 -0.621977
v -2.909766 -3.176804 -0.597327
v -2.690016 -3.118654 -0.401697
v -2.380406 -3.037474 -0.130507
v -2.496126 -3.206784 -0.666877
v -2.132216 -2.975194 0.070273
v -2.311856 -3.221384 -0.703807
v -2.189536 -3.231514 -0.730327
v 2.373794 -0.590924 0.824153
v 2.395244 0.048296 0.829633
v 4.032204 0.048296 -0.488687
v 4.019004 -0.517444 -0.502417
v 2.109864 -2.510724 0.742392
v 2.165684 -2.316204 0.765893
v 3.668754 -2.765654 -0.589477
v 3.608934 -2.948794 -0.603777
v 3.832324 -2.128564 -0.554757
v 2.204294 -2.132414 0.779153
v 2.244874 -1.888324 0.792733
v 2.073204 -2.625994 0.726503
v 3.534294 -3.131944 -0.618077
v 3.952604 -1.415794 -0.524207
v 2.320414 -1.244344 0.811733
v 2.373794 0.687516 0.824153
v 4.019004 0.614036 -0.502417
v 2.109864 2.607316 0.742392
v 3.608934 3.045386 -0.603777
v 3.668754 2.862246 -0.589477
v 2.165684 2.412796 0.765893
v 3.832324 2.225156 -0.554747
v 2.204294 2.229006 0.779153
v 2.244874 1.984916 0.792733
v 2.073204 2.722586 0.726503
v 3.534294 3.228536 -0.618077
v 2.320414 1.340936 0.811733
v 3.952604 1.512386 -0.524207
v 1.870334 -2.772814 0.781093
v 1.970014 -2.697984 0.803023
v 3.258244 -3.345394 -0.649647
v 3.466424 -3.231254 -0.629847
v 1.834144 -2.730484 0.793723
v 1.893714 -2.685764 0.806823
v 3.244694 -3.289594 -0.661157
v 3.404394 -3.204604 -0.644237
vt 0.5000 -0.5000
vt 0.5000 -0.5000
vt 0.5000 -0.5000
vt 0.5000 -0.5000
vt 0.5000 -0.5000
vt 0.5000 -0.5000
vt 0.5000 -0.5000
vt 0.5000 -0.5000
vt 0.5000 -0.5000
vt 0.5000 -0.5000
vt 0.5000 -0.5000
vt 0.5000 -0.5000
vt 0.5000 -0.5000
vt 0.5000 -0.5000
vt 0.5000 -0.5000
vt 0.5000 -0.5000
vt 0.5000 -0.5000
vt 0.5000 -0.5000
vt 0.5000 -0.5000
vt 0.5000 -0.5000
vt 0.5000 -0.5000
vt 0.5000 -0.5000
vt 0.5000 -0.5000
vt 0.5000 -0.5000
vt 0.5000 -0.5000
vt 0.5000 -0.5000
vt 0.5000 -0.5000
vt 0.5000 -0.5000
vt 0.5000 -0.5000
vt 0.5000 -0.5000
vt 0.5000 -0.5000
vt 0.5000 -0.5000
vt 0.5000 -0.5000
vt 0.5000 -0.5000
vt 0.5000 -0.5000
vt 0.5000 -0.5000
vt 0.5000 -0.5000
vt 0.5000 -0.5000
vt 0.5000 -0.5000
vt 0.5000 -0.5000
vt 0.5000 -0.5000
vt 0.5000 -0.5000
vt 0.5000 -0.5000
vt 0.5000 -0.5000
vt 0.5000 -0.5000
vt 0.5000 -0.5000
vt 0.5000 -0.5000
vt 0.5000 -0.5000
vt 0.5000 -0.5000
vt 0.5000 -0.5000
vt 0.5000 -0.5000
vt 0.5000 -0.5000
vt 0.5000 -0.5000
vt 0.5000 -0.5000
vt 0.5000 -0.5000
vt 0.5000 -0.5000
vt 0.5000 -0.5000
vt 0.5000 -0.5000
vt 0.5000 -0.5000
vt 0.5000 -0.5000
vt 0.5000 -0.5000
vt 0.5000 -0.5000
vt 0.5000 -0.5000
vt 0.5000 -0.5000
vt 0.5000 -0.5000
vt 0.5000 -0.5000
vt 0.5000 -0.5000
vt 0.5000 -0.5000
vt 0.5000 -0.5000
vt 0.5000 -0.5000
vt 0.5000 -0.5000
vt 0.5000 -0.5000
vt 0.5000 -0.5000
vt 0.5000 -0.5000
vt 0.5000 -0.5000
vt 0.5000 -0.5000
vt 0.5000 -0.5000
vt 0.5000 -0.5000
vt 0.5000 -0.5000
vt 0.5000 -0.5000
vt 0.5000 -0.5000
vt 0.5000 -0.5000
vt 0.5000 -0.5000
vt 0.5000 -0.5000
vt 0.5000 -0.5000
vt 0.5000 -0.5000
vt 0.5000 -0.5000
vt 0.5000 -0.5000
vt 0.5000 -0.5000
vt 0.5000 -0.5000
vt 0.5000 -0.5000
vt 0.5000 -0.5000
vt 0.5000 -0.5000
vt 0.5000 -0.5000
vt 0.5000 -0.5000
vt 0.5000 -0.5000
vt 0.5000 -0.5000
vt 0.5000 -0.5000
vt 0.5000 -0.5000
vt 0.5000 -0.5000
vt 0.5000 -0.5000
vt 0.5000 -0.5000
vt 0.5000 -0.5000
vt 0.5000 -0.5000
vt 0.5000 -0.5000
vt 0.5000 -0.5000
vt 0.5000 -0.5000
vt 0.5000 -0.5000
vt 0.5000 -0.5000
vt 0.5000 -0.5000
vt 0.5000 -0.5000
vt 0.5000 -0.5000
vt 0.5000 -0.5000
vt 0.5000 -0.5000
vt 0.5000 -0.5000
vt 0.5000 -0.5000
vt 0.5000 -0.5000
vt 0.5000 -0.5000
vt 0.5000 -0.5000
vt 0.5000 -0.5000
vt 0.5000 -0.5000
vt 0.5000 -0.5000
vt 0.5000 -0.5000
vt 0.5000 -0.5000
vt 0.5000 -0.5000
vt 0.5000 -0.5000
vt 0.5000 -0.5000
vt 0.5000 -0.5000
vt 0.5000 -0.5000
vt 0.5000 -0.5000
vt 0.5000 -0.5000
vt 0.5000 -0.5000
vt 0.5000 -0.5000
vn 0.6456 -0.2482 0.7221
vn 0.5864 -0.3820 0.7143
vn 0.7356 0.3664 0.5697
vn 0.3731 -0.6853 0.6253
vn 0.3254 -0.7308 0.6000
vn 0.5301 -0.4476 0.7202
vn 0.5643 -0.3663 0.7398
vn 0.6411 -0.1521 0.7522
vn 0.6259 -0.1969 0.7546
vn -0.5000 0.0000 0.8660
vn -0.4998 -0.0341 0.8655
vn -0.4868 0.0000 0.8735
vn -0.4879 -0.0335 0.8722
vn -0.4973 -0.0708 0.8647
vn -0.4933 -0.1238 0.8610
vn -0.4857 -0.0704 0.8712
vn -0.4855 -0.1231 0.8655
vn -0.4767 0.0000 0.8790
vn -0.4737 -0.0352 0.8800
vn -0.4662 0.0000 0.8846
vn -0.4622 -0.0381 0.8860
vn -0.5096 -0.0326 0.8597
vn -0.5033 0.0000 0.8641
vn -0.4701 -0.0705 0.8798
vn -0.4827 -0.1119 0.8686
vn -0.4676 -0.0660 0.8815
vn -0.4774 -0.0840 0.8746
vn -0.4966 -0.1194 0.8597
vn -0.5039 -0.0686 0.8610
vn -0.4939 -0.1310 0.8596
vn -0.4917 -0.1438 0.8588
vn -0.4957 -0.1469 0.8560
vn -0.5018 -0.1535 0.8512
vn -0.4878 -0.1523 0.8595
vn -0.4898 -0.1547 0.8580
vn -0.4915 -0.1535 0.8572
vn -0.4879 0.0335 0.8722
vn -0.4998 0.0341 0.8654
vn -0.4855 0.1231 0.8655
vn -0.4933 0.1238 0.8610
vn -0.4857 0.0705 0.8712
vn -0.4973 0.0708 0.8647
vn -0.4622 0.0381 0.8860
vn -0.4737 0.0352 0.8800
vn -0.5096 0.0326 0.8597
vn -0.4774 0.0840 0.8746
vn -0.4827 0.1119 0.8686
vn -0.4676 0.0659 0.8815
vn -0.4701 0.0705 0.8798
vn -0.5039 0.0686 0.8610
vn -0.4966 0.1194 0.8597
vn -0.4939 0.1310 0.8596
vn -0.5018 0.1535 0.8512
vn -0.4957 0.1469 0.8560
vn -0.4917 0.1438 0.8588
vn -0.4878 0.1523 0.8595
vn -0.4915 0.1535 0.8572
vn -0.4898 0.1547 0.8580
vn -0.0083 0.9324 0.3612
vn -0.0145 0.9298 0.3677
vn -0.0032 0.9384 0.3455
vn -0.0192 0.9305 0.3657
vn -0.0174 0.9304 0.3661
vn -0.0160 0.9300 0.3672
vn -0.0146 0.9304 0.3663
vn 0.0066 0.9422 0.3350
vn -0.0099 0.9446 0.3280
vn 0.0143 0.9457 0.3247
vn -0.0121 0.9435 0.3311
vn 0.0234 0.9494 0.3130
vn -0.0046 0.9473 0.3202
vn -0.0088 0.9483 0.3171
vn -0.0086 0.9460 0.3241
vn -0.0054 0.9461 0.3237
vn -0.0180 0.9527 0.3034
vn -0.0173 0.9525 0.3039
vn -0.0160 0.9526 0.3038
vn -0.0101 0.9525 0.3045
vn -0.0128 0.9523 0.3048
vn 0.0211 0.9526 0.3033
vn -0.0069 0.9505 0.3107
vn -0.0032 -0.9384 0.3455
vn -0.0145 -0.9298 0.3677
vn -0.0084 -0.9324 0.3612
vn -0.0160 -0.9300 0.3672
vn -0.0174 -0.9304 0.3661
vn -0.0192 -0.9305 0.3657
vn -0.0146 -0.9304 0.3663
vn 0.0066 -0.9422 0.3350
vn -0.0099 -0.9446 0.3280
vn -0.0121 -0.9435 0.3311
vn 0.0143 -0.9457 0.3247
vn -0.0046 -0.9473 0.3202
vn 0.0234 -0.9494 0.3130
vn -0.0088 -0.9483 0.3171
vn -0.0086 -0.9460 0.3241
vn -0.0054 -0.9461 0.3237
vn -0.0180 -0.9527 0.3034
vn -0.0173 -0.9525 0.3039
vn -0.0160 -0.9526 0.3038
vn -0.0100 -0.9525 0.3045
vn -0.0128 -0.9523 0.3048
vn 0.0211 -0.9526 0.3033
vn -0.0069 -0.9505 0.3107
vn 0.6277 -0.0481 0.7770
vn 0.6283 0.0000 0.7779
vn 0.6272 0.0000 0.7788
vn 0.6283 -0.0488 0.7765
vn 0.5963 -0.2767 0.7535
vn 0.6127 -0.2297 0.7562
vn 0.6132 -0.2240 0.7575
vn 0.5960 -0.2771 0.7536
vn 0.6259 -0.1672 0.7617
vn 0.6250 -0.1676 0.7624
vn 0.6263 -0.1255 0.7694
vn 0.6283 -0.0982 0.7717
vn 0.6262 -0.0809 0.7754
vn 0.6277 0.0481 0.7770
vn 0.6283 0.0488 0.7765
vn 0.5963 0.2767 0.7535
vn 0.6127 0.2297 0.7562
vn 0.5960 0.2771 0.7536
vn 0.6132 0.2240 0.7575
vn 0.6259 0.1672 0.7617
vn 0.6250 0.1676 0.7624
vn 0.6263 0.1255 0.7694
vn 0.5904 0.2919 0.7524
vn 0.5883 0.2984 0.7515
vn 0.6283 0.0982 0.7717
vn 0.6262 0.0809 0.7754
usemtl Body
s 1
f 132/1/1 130/2/2 126/3/3 128/4/3
f 132/1/1 131/5/4 130/2/2
f 132/1/1 133/6/5 131/5/4
usemtl mirror
f 129/7/6 110/8/7 127/9/8
f 109/10/9 127/9/8 110/8/7
usemtl glass
f 2/11/10 1/12/11 3/13/12
f 4/14/13 3/13/12 1/12/11
f 6/15/14 5/16/15 7/17/16
f 8/18/17 7/17/16 5/16/15
f 1/12/11 6/15/14 4/14/13
f 7/17/16 4/14/13 6/15/14
f 10/19/18 9/20/19 11/21/20
f 12/22/21 11/21/20 9/20/19
f 3/13/12 4/14/13 10/19/18
f 9/20/19 10/19/18 4/14/13
f 1/12/11 2/11/10 13/23/22
f 14/24/23 13/23/22 2/11/10
f 16/25/24 15/26/25 17/27/26
f 18/28/27 17/27/26 15/26/25
f 7/17/16 8/18/17 16/25/24
f 15/26/25 16/25/24 8/18/17
f 5/16/15 6/15/14 19/29/28
f 20/30/29 19/29/28 6/15/14
f 18/28/27 15/26/25 21/31/30
f 23/32/31 22/33/32 15/26/25
f 22/33/32 24/34/33 15/26/25
f 15/26/25 24/34/33 21/31/30
f 8/18/17 25/35/34 15/26/25
f 23/32/31 15/26/25 25/35/34
f 26/36/35 5/16/15 27/37/36
f 19/29/28 27/37/36 5/16/15
f 25/35/34 8/18/17 26/36/35
f 5/16/15 26/36/35 8/18/17
f 9/20/19 16/25/24 12/22/21
f 17/27/26 12/22/21 16/25/24
f 4/14/13 7/17/16 9/20/19
f 16/25/24 9/20/19 7/17/16
f 6/15/14 1/12/11 20/30/29
f 13/23/22 20/30/29 1/12/11
f 29/38/37 28/39/38 3/13/12
f 2/11/10 3/13/12 28/39/38
f 31/40/39 30/41/40 32/42/41
f 33/43/42 32/42/41 30/41/40
f 32/42/41 33/43/42 29/38/37
f 28/39/38 29/38/37 33/43/42
f 35/44/43 34/45/44 11/21/20
f 10/19/18 11/21/20 34/45/44
f 34/45/44 29/38/37 10/19/18
f 3/13/12 10/19/18 29/38/37
f 14/24/23 2/11/10 36/46/45
f 28/39/38 36/46/45 2/11/10
f 38/47/46 37/48/47 39/49/48
f 40/50/49 39/49/48 37/48/47
f 37/48/47 31/40/39 40/50/49
f 32/42/41 40/50/49 31/40/39
f 41/51/50 33/43/42 42/52/51
f 30/41/40 42/52/51 33/43/42
f 38/47/46 43/53/52 37/48/47
f 43/53/52 44/54/53 37/48/47
f 44/54/53 45/55/54 37/48/47
f 45/55/54 46/56/55 37/48/47
f 46/56/55 47/57/56 37/48/47
f 31/40/39 37/48/47 47/57/56
f 42/52/51 30/41/40 48/58/57
f 49/59/58 48/58/57 30/41/40
f 30/41/40 31/40/39 49/59/58
f 47/57/56 49/59/58 31/40/39
f 39/49/48 40/50/49 35/44/43
f 34/45/44 35/44/43 40/50/49
f 40/50/49 32/42/41 34/45/44
f 29/38/37 34/45/44 32/42/41
f 36/46/45 28/39/38 41/51/50
f 33/43/42 41/51/50 28/39/38
f 50/60/59 52/61/60 51/62/61
f 53/63/62 54/64/63 55/65/64
f 56/66/65 52/61/60 55/65/64
f 55/65/64 52/61/60 50/60/59
f 57/67/66 59/68/67 58/69/68
f 59/68/67 57/67/66 60/70/69
f 60/70/69 57/67/66 51/62/61
f 57/67/66 50/60/59 51/62/61
f 54/64/63 56/66/65 55/65/64
f 61/71/70 63/72/71 62/73/72
f 58/69/68 63/72/71 61/71/70
f 64/74/73 58/69/68 59/68/67
f 65/75/74 58/69/68 64/74/73
f 65/75/74 63/72/71 58/69/68
f 66/76/75 68/77/76 67/78/75
f 68/77/76 69/79/77 67/78/75
f 69/79/77 68/77/76 70/80/78
f 70/80/78 71/81/79 69/79/77
f 71/81/79 70/80/78 72/82/80
f 72/82/80 73/83/81 71/81/79
f 61/71/70 73/83/81 72/82/80
f 62/73/72 73/83/81 61/71/70
f 74/84/82 76/85/83 75/86/84
f 79/87/85 78/88/86 77/89/87
f 79/87/85 76/85/83 80/90/88
f 75/86/84 76/85/83 79/87/85
f 81/91/89 83/92/90 82/93/91
f 83/92/90 81/91/89 84/94/92
f 74/84/82 81/91/89 82/93/91
f 74/84/82 75/86/84 81/91/89
f 79/87/85 80/90/88 78/88/86
f 85/95/93 87/96/94 86/97/95
f 84/94/92 88/98/96 83/92/90
f 84/94/92 89/99/97 88/98/96
f 84/94/92 85/95/93 89/99/97
f 84/94/92 87/96/94 85/95/93
f 90/100/98 92/101/99 91/102/98
f 92/101/99 94/103/100 93/104/101
f 94/103/100 92/101/99 90/100/98
f 93/104/101 96/105/102 95/106/103
f 96/105/102 93/104/101 94/103/100
f 97/107/104 95/106/103 96/105/102
f 87/96/94 97/107/104 86/97/95
f 87/96/94 95/106/103 97/107/104
f 98/108/105 100/109/106 99/110/107
f 100/109/106 98/108/105 101/111/108
f 102/112/109 104/113/110 103/114/111
f 104/113/110 102/112/109 105/115/112
f 106/116/113 103/114/111 104/113/110
f 107/117/114 106/116/113 108/118/115
f 107/117/114 103/114/111 106/116/113
f 109/10/9 105/115/112 102/112/109
f 105/115/112 109/10/9 110/8/7
f 98/108/105 111/119/116 101/111/108
f 111/119/116 98/108/105 112/120/117
f 108/118/115 111/119/116 112/120/117
f 111/119/116 108/118/115 106/116/113
f 113/121/118 100/109/106 114/122/119
f 100/109/106 113/121/118 99/110/107
f 115/123/120 117/124/121 116/125/122
f 117/124/121 115/123/120 118/126/123
f 118/126/123 119/127/124 117/124/121
f 120/128/125 119/127/124 118/126/123
f 121/129/126 119/127/124 120/128/125
f 122/130/127 116/125/122 123/131/128
f 116/125/122 122/130/127 115/123/120
f 113/121/118 125/132/129 124/133/130
f 125/132/129 113/121/118 114/122/119
f 121/129/126 125/132/129 119/127/124
f 125/132/129 121/129/126 124/133/130
